<?xml version="1.0" encoding="UTF-8" standalone="no"?>
<!DOCTYPE svg PUBLIC "-//W3C//DTD SVG 1.1//EN"
 "http://www.w3.org/Graphics/SVG/1.1/DTD/svg11.dtd">
<!-- Generated by graphviz version 2.38.0 (20140413.2041)
 -->
<!-- Title: G Pages: 1 -->
<svg width="1744pt" height="320pt"
 viewBox="0.00 0.00 1743.50 320.00" xmlns="http://www.w3.org/2000/svg" xmlns:xlink="http://www.w3.org/1999/xlink">
<g id="graph0" class="graph" transform="scale(1 1) rotate(0) translate(4 316)">
<title>G</title>
<polygon fill="white" stroke="none" points="-4,4 -4,-316 1739.5,-316 1739.5,4 -4,4"/>
<g id="clust2" class="cluster"><title>clustervizxtime0</title>
<polygon fill="none" stroke="black" stroke-dasharray="1,5" points="277.5,-8 277.5,-304 1727.5,-304 1727.5,-8 277.5,-8"/>
<text text-anchor="middle" x="1002.5" y="-288.8" font-family="Times,serif" font-size="14.00">vizxtime</text>
</g>
<g id="clust3" class="cluster"><title>clusterinit12</title>
<polygon fill="none" stroke="black" stroke-dasharray="1,5" points="1489.5,-198 1489.5,-273 1719.5,-273 1719.5,-198 1489.5,-198"/>
<text text-anchor="middle" x="1604.5" y="-257.8" font-family="Times,serif" font-size="14.00">init</text>
</g>
<!-- Legend -->
<g id="node1" class="node"><title>Legend</title>
<polygon fill="none" stroke="black" points="1.5,-270 1.5,-287 266.5,-287 266.5,-270 1.5,-270"/>
<text text-anchor="start" x="81.5" y="-274.8" font-family="Times,serif" font-size="14.00">Code2flow Legend</text>
<polygon fill="none" stroke="black" points="1.5,-161 1.5,-270 266.5,-270 266.5,-161 1.5,-161"/>
<polygon fill="none" stroke="black" points="3.5,-247 3.5,-268 214.5,-268 214.5,-247 3.5,-247"/>
<text text-anchor="start" x="63" y="-253.8" font-family="Times,serif" font-size="14.00">Regular function</text>
<polygon fill="none" stroke="black" points="214.5,-247 214.5,-268 264.5,-268 264.5,-247 214.5,-247"/>
<polygon fill="none" stroke="black" points="3.5,-226 3.5,-247 214.5,-247 214.5,-226 3.5,-226"/>
<text text-anchor="start" x="15" y="-232.8" font-family="Times,serif" font-size="14.00">Trunk function (nothing calls this)</text>
<polygon fill="coral" stroke="none" points="214.5,-226 214.5,-247 264.5,-247 264.5,-226 214.5,-226"/>
<polygon fill="none" stroke="black" points="214.5,-226 214.5,-247 264.5,-247 264.5,-226 214.5,-226"/>
<polygon fill="none" stroke="black" points="3.5,-205 3.5,-226 214.5,-226 214.5,-205 3.5,-205"/>
<text text-anchor="start" x="6.5" y="-211.8" font-family="Times,serif" font-size="14.00">Leaf function (this calls nothing else)</text>
<polygon fill="green" stroke="none" points="214.5,-205 214.5,-226 264.5,-226 264.5,-205 214.5,-205"/>
<polygon fill="none" stroke="black" points="214.5,-205 214.5,-226 264.5,-226 264.5,-205 214.5,-205"/>
<polygon fill="none" stroke="black" points="3.5,-184 3.5,-205 214.5,-205 214.5,-184 3.5,-184"/>
<text text-anchor="start" x="9" y="-190.8" font-family="Times,serif" font-size="14.00">Function call which returns no value</text>
<polygon fill="none" stroke="black" points="214.5,-184 214.5,-205 264.5,-205 264.5,-184 214.5,-184"/>
<text text-anchor="start" x="232" y="-190.8" font-family="Times,serif" font-size="14.00">→</text>
<polygon fill="none" stroke="black" points="3.5,-163 3.5,-184 214.5,-184 214.5,-163 3.5,-163"/>
<text text-anchor="start" x="19.5" y="-169.8" font-family="Times,serif" font-size="14.00">Function call returns some value</text>
<polygon fill="none" stroke="black" points="214.5,-163 214.5,-184 264.5,-184 264.5,-163 214.5,-163"/>
<text text-anchor="start" x="232" y="-169.8" font-family="Times,serif" font-size="14.00" fill="blue">→</text>
<polygon fill="none" stroke="black" points="2.5,-162 2.5,-269 265.5,-269 265.5,-162 2.5,-162"/>
<polygon fill="none" stroke="black" points="0,-160 0,-288 267,-288 267,-160 0,-160"/>
</g>
<!-- node73 -->
<g id="node2" class="node"><title>node73</title>
<path fill="coral" stroke="black" d="M1467,-242C1467,-242 1226,-242 1226,-242 1220,-242 1214,-236 1214,-230 1214,-230 1214,-218 1214,-218 1214,-212 1220,-206 1226,-206 1226,-206 1467,-206 1467,-206 1473,-206 1479,-212 1479,-218 1479,-218 1479,-230 1479,-230 1479,-236 1473,-242 1467,-242"/>
<text text-anchor="middle" x="1346.5" y="-220.3" font-family="Times,serif" font-size="14.00">0: (vizxtime window frame (runs on import))</text>
</g>
<!-- node4 -->
<g id="node3" class="node"><title>node4</title>
<path fill="green" stroke="black" d="M1160.5,-52C1160.5,-52 1114.5,-52 1114.5,-52 1108.5,-52 1102.5,-46 1102.5,-40 1102.5,-40 1102.5,-28 1102.5,-28 1102.5,-22 1108.5,-16 1114.5,-16 1114.5,-16 1160.5,-16 1160.5,-16 1166.5,-16 1172.5,-22 1172.5,-28 1172.5,-28 1172.5,-40 1172.5,-40 1172.5,-46 1166.5,-52 1160.5,-52"/>
<text text-anchor="middle" x="1137.5" y="-30.3" font-family="Times,serif" font-size="14.00">6: Region</text>
</g>
<!-- node29 -->
<g id="node4" class="node"><title>node29</title>
<path fill="coral" stroke="black" d="M1699.5,-242C1699.5,-242 1667.5,-242 1667.5,-242 1661.5,-242 1655.5,-236 1655.5,-230 1655.5,-230 1655.5,-218 1655.5,-218 1655.5,-212 1661.5,-206 1667.5,-206 1667.5,-206 1699.5,-206 1699.5,-206 1705.5,-206 1711.5,-212 1711.5,-218 1711.5,-218 1711.5,-230 1711.5,-230 1711.5,-236 1705.5,-242 1699.5,-242"/>
<text text-anchor="middle" x="1683.5" y="-220.3" font-family="Times,serif" font-size="14.00">62: init</text>
</g>
<!-- node31 -->
<g id="node6" class="node"><title>node31</title>
<path fill="none" stroke="black" d="M1707.5,-124C1707.5,-124 1623.5,-124 1623.5,-124 1617.5,-124 1611.5,-118 1611.5,-112 1611.5,-112 1611.5,-100 1611.5,-100 1611.5,-94 1617.5,-88 1623.5,-88 1623.5,-88 1707.5,-88 1707.5,-88 1713.5,-88 1719.5,-94 1719.5,-100 1719.5,-100 1719.5,-112 1719.5,-112 1719.5,-118 1713.5,-124 1707.5,-124"/>
<text text-anchor="middle" x="1665.5" y="-102.3" font-family="Times,serif" font-size="14.00">191: paintButton</text>
</g>
<!-- node29&#45;&gt;node31 -->
<g id="edge1" class="edge"><title>node29&#45;&gt;node31</title>
<path fill="none" stroke="black" d="M1680.84,-205.884C1677.92,-187.036 1673.18,-156.469 1669.74,-134.304"/>
<polygon fill="black" stroke="black" points="1673.16,-133.531 1668.17,-124.186 1666.24,-134.605 1673.16,-133.531"/>
</g>
<!-- node39 -->
<g id="node7" class="node"><title>node39</title>
<path fill="none" stroke="black" d="M1183.5,-124C1183.5,-124 1091.5,-124 1091.5,-124 1085.5,-124 1079.5,-118 1079.5,-112 1079.5,-112 1079.5,-100 1079.5,-100 1079.5,-94 1085.5,-88 1091.5,-88 1091.5,-88 1183.5,-88 1183.5,-88 1189.5,-88 1195.5,-94 1195.5,-100 1195.5,-100 1195.5,-112 1195.5,-112 1195.5,-118 1189.5,-124 1183.5,-124"/>
<text text-anchor="middle" x="1137.5" y="-102.3" font-family="Times,serif" font-size="14.00">200: organizeData</text>
</g>
<!-- node29&#45;&gt;node39 -->
<g id="edge2" class="edge"><title>node29&#45;&gt;node39</title>
<path fill="none" stroke="black" d="M1678.44,-205.911C1673.07,-191.074 1663.04,-170.385 1646.5,-160 1565.56,-109.196 1317.37,-138.281 1205.88,-123.893"/>
<polygon fill="black" stroke="black" points="1206.25,-120.41 1195.84,-122.415 1205.23,-127.335 1206.25,-120.41"/>
</g>
<!-- node43 -->
<g id="node8" class="node"><title>node43</title>
<path fill="none" stroke="black" d="M1425.5,-124C1425.5,-124 1327.5,-124 1327.5,-124 1321.5,-124 1315.5,-118 1315.5,-112 1315.5,-112 1315.5,-100 1315.5,-100 1315.5,-94 1321.5,-88 1327.5,-88 1327.5,-88 1425.5,-88 1425.5,-88 1431.5,-88 1437.5,-94 1437.5,-100 1437.5,-100 1437.5,-112 1437.5,-112 1437.5,-118 1431.5,-124 1425.5,-124"/>
<text text-anchor="middle" x="1376.5" y="-102.3" font-family="Times,serif" font-size="14.00">238: genNestedList</text>
</g>
<!-- node29&#45;&gt;node43 -->
<g id="edge3" class="edge"><title>node29&#45;&gt;node43</title>
<path fill="none" stroke="blue" stroke-width="2" d="M1677.93,-205.777C1672.32,-191.271 1662.23,-171.152 1646.5,-160 1644.44,-158.538 1527.07,-135.841 1447.78,-120.627"/>
<polygon fill="blue" stroke="blue" stroke-width="2" points="1448.3,-117.164 1437.82,-118.718 1446.98,-124.039 1448.3,-117.164"/>
</g>
<!-- node50 -->
<g id="node10" class="node"><title>node50</title>
<path fill="none" stroke="black" d="M1581,-124C1581,-124 1486,-124 1486,-124 1480,-124 1474,-118 1474,-112 1474,-112 1474,-100 1474,-100 1474,-94 1480,-88 1486,-88 1486,-88 1581,-88 1581,-88 1587,-88 1593,-94 1593,-100 1593,-100 1593,-112 1593,-112 1593,-118 1587,-124 1581,-124"/>
<text text-anchor="middle" x="1533.5" y="-102.3" font-family="Times,serif" font-size="14.00">277: recalcRedraw</text>
</g>
<!-- node29&#45;&gt;node50 -->
<g id="edge4" class="edge"><title>node29&#45;&gt;node50</title>
<path fill="none" stroke="blue" stroke-width="2" d="M1676.83,-205.855C1670.71,-191.985 1660.47,-172.732 1646.5,-160 1631.91,-146.699 1613.39,-136.152 1595.59,-128.084"/>
<polygon fill="blue" stroke="blue" stroke-width="2" points="1596.93,-124.853 1586.37,-124.089 1594.15,-131.276 1596.93,-124.853"/>
</g>
<!-- node25 -->
<g id="node5" class="node"><title>node25</title>
<path fill="coral" stroke="black" d="M1625.5,-242C1625.5,-242 1509.5,-242 1509.5,-242 1503.5,-242 1497.5,-236 1497.5,-230 1497.5,-230 1497.5,-218 1497.5,-218 1497.5,-212 1503.5,-206 1509.5,-206 1509.5,-206 1625.5,-206 1625.5,-206 1631.5,-206 1637.5,-212 1637.5,-218 1637.5,-218 1637.5,-230 1637.5,-230 1637.5,-236 1631.5,-242 1625.5,-242"/>
<text text-anchor="middle" x="1567.5" y="-220.3" font-family="Times,serif" font-size="14.00">118: init.getTimeField</text>
</g>
<!-- node72 -->
<g id="node19" class="node"><title>node72</title>
<path fill="green" stroke="black" d="M1687.5,-52C1687.5,-52 1643.5,-52 1643.5,-52 1637.5,-52 1631.5,-46 1631.5,-40 1631.5,-40 1631.5,-28 1631.5,-28 1631.5,-22 1637.5,-16 1643.5,-16 1643.5,-16 1687.5,-16 1687.5,-16 1693.5,-16 1699.5,-22 1699.5,-28 1699.5,-28 1699.5,-40 1699.5,-40 1699.5,-46 1693.5,-52 1687.5,-52"/>
<text text-anchor="middle" x="1665.5" y="-30.3" font-family="Times,serif" font-size="14.00">451: rgba</text>
</g>
<!-- node31&#45;&gt;node72 -->
<g id="edge5" class="edge"><title>node31&#45;&gt;node72</title>
<path fill="none" stroke="blue" stroke-width="2" d="M1665.5,-87.6966C1665.5,-79.9827 1665.5,-70.7125 1665.5,-62.1124"/>
<polygon fill="blue" stroke="blue" stroke-width="2" points="1669,-62.1043 1665.5,-52.1043 1662,-62.1044 1669,-62.1043"/>
</g>
<!-- node39&#45;&gt;node4 -->
<g id="edge6" class="edge"><title>node39&#45;&gt;node4</title>
<path fill="none" stroke="black" d="M1137.5,-87.6966C1137.5,-79.9827 1137.5,-70.7125 1137.5,-62.1124"/>
<polygon fill="black" stroke="black" points="1141,-62.1043 1137.5,-52.1043 1134,-62.1044 1141,-62.1043"/>
</g>
<!-- node43&#45;&gt;node43 -->
<g id="edge7" class="edge"><title>node43&#45;&gt;node43</title>
<path fill="none" stroke="blue" stroke-width="2" d="M1437.78,-118.603C1448.25,-116.881 1455.5,-112.68 1455.5,-106 1455.5,-101.721 1452.52,-98.4589 1447.63,-96.2144"/>
<polygon fill="blue" stroke="blue" stroke-width="2" points="1448.36,-92.7812 1437.78,-93.3973 1446.43,-99.5115 1448.36,-92.7812"/>
</g>
<!-- node45 -->
<g id="node9" class="node"><title>node45</title>
<path fill="coral" stroke="black" d="M1184,-242C1184,-242 1075,-242 1075,-242 1069,-242 1063,-236 1063,-230 1063,-230 1063,-218 1063,-218 1063,-212 1069,-206 1075,-206 1075,-206 1184,-206 1184,-206 1190,-206 1196,-212 1196,-218 1196,-218 1196,-230 1196,-230 1196,-236 1190,-242 1184,-242"/>
<text text-anchor="middle" x="1129.5" y="-220.3" font-family="Times,serif" font-size="14.00">256: pasteFieldName</text>
</g>
<!-- node54 -->
<g id="node11" class="node"><title>node54</title>
<path fill="green" stroke="black" d="M1423.5,-52C1423.5,-52 1365.5,-52 1365.5,-52 1359.5,-52 1353.5,-46 1353.5,-40 1353.5,-40 1353.5,-28 1353.5,-28 1353.5,-22 1359.5,-16 1365.5,-16 1365.5,-16 1423.5,-16 1423.5,-16 1429.5,-16 1435.5,-22 1435.5,-28 1435.5,-28 1435.5,-40 1435.5,-40 1435.5,-46 1429.5,-52 1423.5,-52"/>
<text text-anchor="middle" x="1394.5" y="-30.3" font-family="Times,serif" font-size="14.00">378: redraw</text>
</g>
<!-- node50&#45;&gt;node54 -->
<g id="edge8" class="edge"><title>node50&#45;&gt;node54</title>
<path fill="none" stroke="blue" stroke-width="2" d="M1499.5,-87.8761C1480.9,-78.5117 1457.67,-66.8136 1437.79,-56.803"/>
<polygon fill="blue" stroke="blue" stroke-width="2" points="1439.14,-53.5616 1428.63,-52.1898 1435.99,-59.8136 1439.14,-53.5616"/>
</g>
<!-- node56 -->
<g id="node12" class="node"><title>node56</title>
<path fill="coral" stroke="black" d="M1285.5,-124C1285.5,-124 1225.5,-124 1225.5,-124 1219.5,-124 1213.5,-118 1213.5,-112 1213.5,-112 1213.5,-100 1213.5,-100 1213.5,-94 1219.5,-88 1225.5,-88 1225.5,-88 1285.5,-88 1285.5,-88 1291.5,-88 1297.5,-94 1297.5,-100 1297.5,-100 1297.5,-112 1297.5,-112 1297.5,-118 1291.5,-124 1285.5,-124"/>
<text text-anchor="middle" x="1255.5" y="-102.3" font-family="Times,serif" font-size="14.00">403: toTime</text>
</g>
<!-- node56&#45;&gt;node54 -->
<g id="edge9" class="edge"><title>node56&#45;&gt;node54</title>
<path fill="none" stroke="blue" stroke-width="2" d="M1289.5,-87.8761C1308.1,-78.5117 1331.33,-66.8136 1351.21,-56.803"/>
<polygon fill="blue" stroke="blue" stroke-width="2" points="1353.01,-59.8136 1360.37,-52.1898 1349.86,-53.5616 1353.01,-59.8136"/>
</g>
<!-- node58 -->
<g id="node13" class="node"><title>node58</title>
<path fill="coral" stroke="black" d="M1032.5,-242C1032.5,-242 952.5,-242 952.5,-242 946.5,-242 940.5,-236 940.5,-230 940.5,-230 940.5,-218 940.5,-218 940.5,-212 946.5,-206 952.5,-206 952.5,-206 1032.5,-206 1032.5,-206 1038.5,-206 1044.5,-212 1044.5,-218 1044.5,-218 1044.5,-230 1044.5,-230 1044.5,-236 1038.5,-242 1032.5,-242"/>
<text text-anchor="middle" x="992.5" y="-220.3" font-family="Times,serif" font-size="14.00">405: hexEncode</text>
</g>
<!-- node62 -->
<g id="node14" class="node"><title>node62</title>
<path fill="coral" stroke="black" d="M910.5,-242C910.5,-242 818.5,-242 818.5,-242 812.5,-242 806.5,-236 806.5,-230 806.5,-230 806.5,-218 806.5,-218 806.5,-212 812.5,-206 818.5,-206 818.5,-206 910.5,-206 910.5,-206 916.5,-206 922.5,-212 922.5,-218 922.5,-218 922.5,-230 922.5,-230 922.5,-236 916.5,-242 910.5,-242"/>
<text text-anchor="middle" x="864.5" y="-220.3" font-family="Times,serif" font-size="14.00">417: selRegionAll</text>
</g>
<!-- node64 -->
<g id="node15" class="node"><title>node64</title>
<path fill="coral" stroke="black" d="M776,-242C776,-242 669,-242 669,-242 663,-242 657,-236 657,-230 657,-230 657,-218 657,-218 657,-212 663,-206 669,-206 669,-206 776,-206 776,-206 782,-206 788,-212 788,-218 788,-218 788,-230 788,-230 788,-236 782,-242 776,-242"/>
<text text-anchor="middle" x="722.5" y="-220.3" font-family="Times,serif" font-size="14.00">429: selRegionInvert</text>
</g>
<!-- node66 -->
<g id="node16" class="node"><title>node66</title>
<path fill="coral" stroke="black" d="M627,-242C627,-242 556,-242 556,-242 550,-242 544,-236 544,-230 544,-230 544,-218 544,-218 544,-212 550,-206 556,-206 556,-206 627,-206 627,-206 633,-206 639,-212 639,-218 639,-218 639,-230 639,-230 639,-236 633,-242 627,-242"/>
<text text-anchor="middle" x="591.5" y="-220.3" font-family="Times,serif" font-size="14.00">430: XFZaBin</text>
</g>
<!-- node68 -->
<g id="node17" class="node"><title>node68</title>
<path fill="coral" stroke="black" d="M513.5,-242C513.5,-242 431.5,-242 431.5,-242 425.5,-242 419.5,-236 419.5,-230 419.5,-230 419.5,-218 419.5,-218 419.5,-212 425.5,-206 431.5,-206 431.5,-206 513.5,-206 513.5,-206 519.5,-206 525.5,-212 525.5,-218 525.5,-218 525.5,-230 525.5,-230 525.5,-236 519.5,-242 513.5,-242"/>
<text text-anchor="middle" x="472.5" y="-220.3" font-family="Times,serif" font-size="14.00">437: saveConfig</text>
</g>
<!-- node70 -->
<g id="node18" class="node"><title>node70</title>
<path fill="coral" stroke="black" d="M389.5,-242C389.5,-242 297.5,-242 297.5,-242 291.5,-242 285.5,-236 285.5,-230 285.5,-230 285.5,-218 285.5,-218 285.5,-212 291.5,-206 297.5,-206 297.5,-206 389.5,-206 389.5,-206 395.5,-206 401.5,-212 401.5,-218 401.5,-218 401.5,-230 401.5,-230 401.5,-236 395.5,-242 389.5,-242"/>
<text text-anchor="middle" x="343.5" y="-220.3" font-family="Times,serif" font-size="14.00">446: saveDrawing</text>
</g>
</g>
</svg>
